<?xml version="1.0" encoding="UTF-8" standalone="no"?>
<!-- Created with Inkscape (http://www.inkscape.org/) -->

<svg
   xmlns:dc="http://purl.org/dc/elements/1.1/"
   xmlns:cc="http://creativecommons.org/ns#"
   xmlns:rdf="http://www.w3.org/1999/02/22-rdf-syntax-ns#"
   xmlns:svg="http://www.w3.org/2000/svg"
   xmlns="http://www.w3.org/2000/svg"
   xmlns:sodipodi="http://sodipodi.sourceforge.net/DTD/sodipodi-0.dtd"
   xmlns:inkscape="http://www.inkscape.org/namespaces/inkscape"
   width="297mm"
   height="210mm"
   viewBox="0 0 1052.3622 744.09448"
   id="svg2"
   version="1.1"
   inkscape:version="0.91 r13725"
   sodipodi:docname="themuselogo.svg">
  <defs
     id="defs4" />
  <sodipodi:namedview
     id="base"
     pagecolor="#ffffff"
     bordercolor="#666666"
     borderopacity="1.0"
     inkscape:pageopacity="0.0"
     inkscape:pageshadow="2"
     inkscape:zoom="0.35"
     inkscape:cx="-42.142857"
     inkscape:cy="520"
     inkscape:document-units="px"
     inkscape:current-layer="layer1"
     showgrid="false"
     inkscape:window-width="1440"
     inkscape:window-height="804"
     inkscape:window-x="0"
     inkscape:window-y="1"
     inkscape:window-maximized="1" />
  <metadata
     id="metadata7">
    <rdf:RDF>
      <cc:Work
         rdf:about="">
        <dc:format>image/svg+xml</dc:format>
        <dc:type
           rdf:resource="http://purl.org/dc/dcmitype/StillImage" />
        <dc:title></dc:title>
      </cc:Work>
    </rdf:RDF>
  </metadata>
  <g
     inkscape:label="Layer 1"
     inkscape:groupmode="layer"
     id="layer1"
     transform="translate(0,-308.26772)">
    <path
       style="fill:#000000;fill-opacity:1;stroke-width:0.6;stroke-miterlimit:4;stroke-dasharray:none"
       d="m 533.97207,797.24299 c -0.97371,-2.65204 -10.09013,-35.74643 -20.25872,-73.54307 l -18.48834,-68.72118 -1.24997,61.18958 c -0.91622,44.85261 -2.49826,61.59097 -5.92536,62.69299 -3.67643,1.18221 -4.67535,-23.67617 -4.67535,-116.34736 0,-96.38316 0.91756,-117.85078 5.03708,-117.85078 3.47437,0 13.10493,31.03379 31.04116,100.02764 l 26.00405,100.02765 25.62116,-97.31497 c 23.82827,-90.50519 31.57867,-115.65646 31.87236,-103.43109 0.0625,2.60402 1.82033,3.71465 3.90618,2.46806 2.54085,-1.51853 3.46665,36.3099 2.80522,114.62323 l -0.98722,116.88979 -12.15596,1.13338 -12.15597,1.13339 -0.34852,-64.42921 -0.34852,-64.42921 -19.43916,73.89383 c -17.69801,67.27523 -25.32294,85.4182 -30.25412,71.98733 z M 522.80148,694.58403 c -11.22945,-41.67589 -22.85838,-84.72617 -25.84202,-95.6673 l -5.42481,-19.89297 -0.34,16.45691 c -0.18702,9.0513 1.12396,18.00313 2.91309,19.89297 1.78911,1.88983 12.26021,38.80202 23.26908,82.0271 11.00889,43.22507 21.32692,77.32352 22.92896,75.77433 1.60205,-1.5492 -6.27495,-36.91516 -17.50441,-78.59104 z m -32.64455,-64.92362 c -1.41248,-3.9786 -2.32701,26.94594 -2.03232,68.72118 l 0.53583,75.95498 2.03235,-68.72118 c 1.11773,-37.79664 0.8766,-71.97638 -0.53586,-75.95498 z m 108.79381,47.92398 c -0.20901,-53.22277 -1.68874,-90.97031 -3.36746,-85.90148 -4.51403,13.63002 -4.51403,180.84521 0,180.84521 2.408,0 3.60749,-33.81882 3.36746,-94.94373 z m -23.25421,-21.47537 c -1.19398,-2.88532 -2.08029,-2.02827 -2.25975,2.18521 -0.16232,3.81282 0.72158,5.94906 1.96449,4.74719 1.24286,-1.20187 1.37571,-4.32145 0.29511,-6.9324 z m 3.7403,-14.46762 c -1.19398,-2.88532 -2.08028,-2.02827 -2.25974,2.18522 -0.16233,3.81281 0.72158,5.94905 1.96448,4.74718 1.24286,-1.20187 1.37571,-4.32145 0.29511,-6.9324 z m 8.66585,-11.98099 c 0,-2.98394 -1.68313,-5.42535 -3.74029,-5.42535 -2.05717,0 -3.74031,2.44141 -3.74031,5.42535 0,2.98394 1.68314,5.42536 3.74031,5.42536 2.05716,0 3.74029,-2.44142 3.74029,-5.42536 z m 75.76469,149.99727 c -4.6156,-1.79446 -11.77761,-8.60862 -15.91553,-15.14259 -7.12478,-11.25032 -7.47293,-17.15148 -6.56917,-111.3448 l 0.95435,-99.46486 11.22089,0 11.2209,0 1.87015,103.43744 c 1.97091,109.00998 3.04538,115.38525 19.4472,115.38525 4.02066,0 12.23025,-4.75763 18.24348,-10.57249 l 10.9332,-10.57249 0,-100.04449 c 0,-78.42715 1.01026,-99.71924 4.67537,-98.5392 6.3391,2.04095 8.81982,182.63484 2.78465,202.72134 -6.75015,22.46626 -34.20578,33.72402 -58.86549,24.13689 z m 26.15846,-2.29116 c -2.57146,-1.00337 -6.7793,-1.00337 -9.35075,0 -2.57146,1.00338 -0.46754,1.82431 4.67538,1.82431 5.14289,0 7.24682,-0.82093 4.67537,-1.82431 z m 21.98382,-11.16798 c 4.65245,-5.73661 4.52015,-5.86455 -1.41218,-1.36558 -6.23041,4.72501 -8.21175,7.69516 -5.13335,7.69516 0.77669,0 3.72218,-2.84831 6.54553,-6.32958 z m -56.69806,-107.6029 -1.98665,-101.27331 -0.81857,96.45636 c -0.45022,53.051 0.23076,99.10109 1.51362,102.33354 1.28269,3.23244 2.54504,5.40006 2.80523,4.81694 0.26013,-0.58312 -0.42099,-46.63321 -1.51363,-102.33353 z m 66.49704,-53.34933 c -0.63906,-26.35819 -1.16195,-4.7924 -1.16195,47.92398 0,52.71637 0.52289,74.28216 1.16195,47.92398 0.63907,-26.3582 0.63907,-69.48977 0,-95.84796 z m -679.78955,66.00849 0,-108.50711 -16.831345,0 c -12.46766,0 -16.8313397,-1.40657 -16.8313397,-5.42536 0,-4.50803 7.2727967,-5.42536 43.0134317,-5.42536 35.740627,0 43.013427,0.91733 43.013427,5.42536 0,3.91832 -4.15588,5.42536 -14.96119,5.42536 l -14.9612,0 0,108.50711 0,108.50713 -11.220889,0 -11.220895,0 0,-108.50713 z m 14.961194,-5.42535 c 0,-68.72118 -1.33129,-106.69867 -3.740299,-106.69867 -2.409006,0 -3.740299,37.97749 -3.740299,106.69867 0,68.72118 1.331293,106.69867 3.740299,106.69867 2.409009,0 3.740299,-37.97749 3.740299,-106.69867 z M 37.387314,556.64568 c -3.57605,-0.90529 -10.308589,-0.93813 -14.961194,-0.073 -4.652603,0.86514 -1.726743,1.60581 6.501915,1.64597 8.228657,0.0401 12.035334,-0.6677 8.459279,-1.57298 z m 48.62388,0 c -3.57605,-0.90529 -10.30859,-0.93813 -14.96119,-0.073 -4.65261,0.86514 -1.72675,1.60581 6.50191,1.64597 8.22865,0.0401 12.03534,-0.6677 8.45928,-1.57298 z m 39.990186,218.55558 c -0.99539,-2.50836 -1.36335,-53.37106 -0.81769,-113.02825 l 0.99211,-108.46758 12.15596,-1.1334 12.15598,-1.13338 0,38.20665 0,38.20666 16.83134,0 16.83134,0 0,-37.97749 0,-37.9775 11.2209,0 11.22089,0 0,113.93248 0,113.93248 -11.22089,0 -11.2209,0 0,-70.52963 0,-70.52963 -16.83134,0 -16.83134,0 0,70.52963 0,70.52963 -11.33829,0 c -6.23606,0 -12.15269,-2.0523 -13.14807,-4.56067 z m 17.00576,-109.37181 c 0,-68.72118 -1.33129,-106.69867 -3.7403,-106.69867 -2.409,0 -3.7403,37.97749 -3.7403,106.69867 0,68.72118 1.3313,106.69867 3.7403,106.69867 2.40901,0 3.7403,-37.97749 3.7403,-106.69867 z m 56.10447,0 c 0,-68.72118 -1.33129,-106.69867 -3.74029,-106.69867 -2.40901,0 -3.7403,37.97749 -3.7403,106.69867 0,68.72118 1.33129,106.69867 3.7403,106.69867 2.409,0 3.74029,-37.97749 3.74029,-106.69867 z m -21.45529,-33.28973 c -4.60033,-0.85852 -13.01601,-0.88074 -18.70149,-0.0494 -5.68548,0.83138 -1.92157,1.5338 8.36425,1.56095 10.28581,0.0271 14.93758,-0.65305 10.33724,-1.51156 z m 62.59859,33.28973 0,-113.93248 31.79253,0 c 25.76651,0 31.79255,1.02834 31.79255,5.42536 0,4.16492 -4.77928,5.42536 -20.57165,5.42536 l -20.57164,0 0,32.55213 0,32.55214 24.31195,0 c 19.11707,0 24.31193,1.15926 24.31193,5.42536 0,4.26608 -5.19486,5.42535 -24.31193,5.42535 l -24.31195,0 0,65.10427 0,65.10428 24.31195,0 c 19.11707,0 24.31193,1.15926 24.31193,5.42535 0,4.44181 -6.44162,5.42536 -35.53284,5.42536 l -35.53283,0 0,-113.93248 z m 55.23639,107.7312 c -5.62037,-0.82528 -15.71917,-0.8419 -22.44179,-0.0369 -6.72264,0.80497 -2.12415,1.48021 10.21883,1.5005 12.34299,0.0203 17.84332,-0.63832 12.22296,-1.4636 z m -40.2752,-107.7312 c 0,-68.72118 -1.33129,-106.69867 -3.7403,-106.69867 -2.409,0 -3.7403,37.97749 -3.7403,106.69867 0,68.72118 1.3313,106.69867 3.7403,106.69867 2.40901,0 3.7403,-37.97749 3.7403,-106.69867 z m 40.2752,-33.32806 c -5.62037,-0.82528 -15.71917,-0.84189 -22.44179,-0.0369 -6.72264,0.80497 -2.12415,1.48019 10.21883,1.5005 12.34299,0.0203 17.84332,-0.63832 12.22296,-1.46361 z m -5.62601,-75.91666 c -4.60033,-0.85852 -13.01601,-0.88073 -18.7015,-0.0494 -5.68548,0.83135 -1.92157,1.53378 8.36426,1.56092 10.28581,0.0272 14.93757,-0.65304 10.33724,-1.51156 z m 510.99033,213.07386 c -12.48493,-6.30705 -24.24004,-15.9374 -31.28456,-25.6299 -10.19697,-14.0298 -11.28478,-18.22416 -11.28478,-43.51013 0,-24.56992 1.27301,-29.84377 10.43549,-43.23248 10.85694,-15.86465 29.71284,-29.3973 40.99361,-29.4206 10.28261,-0.0213 7.69709,5.84873 -6.02447,13.67756 -21.28225,12.14259 -33.55851,31.15202 -35.18274,54.47949 -1.23875,17.7908 0.0112,22.60401 9.64294,37.09283 12.03319,18.10372 42.20347,35.79586 61.04247,35.79586 35.68382,0 63.15085,-31.06515 63.03267,-71.28976 -0.10749,-36.58646 -22.6624,-61.80148 -60.51759,-67.65507 -27.34042,-4.22769 -40.40894,-18.53541 -40.40894,-44.2407 0,-19.1052 19.93937,-37.44562 40.71023,-37.44562 22.04501,0 37.77638,14.29139 39.81334,36.16904 1.50824,16.19916 1.50088,16.21066 -1.55936,2.43279 -1.6911,-7.6138 -6.95618,-17.37944 -11.70012,-21.70142 l -8.62538,-7.85815 8.08364,10.43426 c 4.59844,5.93563 7.91856,15.29198 7.70076,21.70143 l -0.38286,11.26716 -3.0642,-12.60196 c -3.12739,-12.86191 -18.65235,-28.99244 -27.90405,-28.99244 -7.26508,0 -16.46625,9.76745 -19.22915,20.41261 -3.36199,12.95329 4.03494,26.01716 16.23813,28.67852 33.61105,7.33011 40.65642,10.47139 57.34814,25.56944 20.24303,18.31032 29.74102,39.5799 29.74102,66.60129 0,60.78365 -69.61166,98.5672 -127.61424,69.26595 z m 50.00305,3.93387 c -4.62862,-0.8621 -12.20272,-0.8621 -16.83135,0 -4.62862,0.86209 -0.84157,1.56745 8.41567,1.56745 9.25724,0 13.0443,-0.70536 8.41568,-1.56745 z m 66.30241,-58.58047 c 10.72103,-43.21602 -21.65769,-88.37244 -69.10763,-96.37974 -21.37009,-3.60624 -31.73847,-13.99772 -32.02964,-32.10094 -0.20684,-12.84892 -0.68601,-13.65829 -3.73402,-6.30464 -7.78872,18.791 7.52762,38.26085 33.33787,42.37849 22.66057,3.61515 33.50972,9.03694 47.02009,23.49795 26.97825,28.87655 27.64324,73.14266 1.56113,103.91822 -9.16269,10.81153 -8.45509,10.41989 3.59121,-1.98768 10.13887,-10.44292 16.4153,-21.14789 19.36099,-33.02166 z M 762.83541,690.24356 c -0.85697,-5.47057 -1.55817,-0.99466 -1.55817,9.94648 0,10.94113 0.7012,15.41706 1.55817,9.94649 0.85702,-5.47057 0.85702,-14.42241 0,-19.89297 z m 21.63295,-40.69018 c 3.72344,-3.97859 5.92831,-7.23381 4.89972,-7.23381 -1.02858,0 -4.91658,3.25522 -8.64002,7.23381 -3.72343,3.9786 -5.9283,7.23381 -4.89971,7.23381 1.02858,0 4.91659,-3.25521 8.64001,-7.23381 z m 64.44225,-96.22472 c -1.2429,-1.20186 -4.46891,-1.33036 -7.16892,-0.28554 -2.98375,1.15461 -2.09748,2.01166 2.25977,2.18522 3.94288,0.15704 6.15201,-0.69781 4.90915,-1.89967 z m 113.2219,112.50079 0,-113.93248 31.7926,0 c 25.76649,0 31.79249,1.02834 31.79249,5.42536 0,4.16492 -4.7793,5.42536 -20.5716,5.42536 l -20.57169,0 0,32.55213 0,32.55214 24.31199,0 c 19.1171,0 24.3119,1.15926 24.3119,5.42536 0,4.26608 -5.1948,5.42535 -24.3119,5.42535 l -24.31199,0 0,65.10427 0,65.10428 24.31199,0 c 19.1171,0 24.3119,1.15926 24.3119,5.42535 0,4.44181 -6.4416,5.42536 -35.53279,5.42536 l -35.5329,0 0,-113.93248 z m 55.23639,107.7312 c -5.6203,-0.82528 -15.7191,-0.8419 -22.44179,-0.0369 -6.7226,0.80499 -2.1241,1.48023 10.21889,1.50053 12.343,0.0203 17.8433,-0.63833 12.2229,-1.46361 z m -40.27519,-107.7312 c 0,-68.72118 -1.3312,-106.69867 -3.7403,-106.69867 -2.409,0 -3.7403,37.97749 -3.7403,106.69867 0,68.72118 1.3313,106.69867 3.7403,106.69867 2.4091,0 3.7403,-37.97749 3.7403,-106.69867 z m 40.27519,-33.32806 c -5.6203,-0.82528 -15.7191,-0.84189 -22.44179,-0.0369 -6.7226,0.80498 -2.1241,1.48022 10.21889,1.50051 12.343,0.0203 17.8433,-0.63832 12.2229,-1.4636 z m -5.626,-75.91666 c -4.6003,-0.85852 -13.01599,-0.88073 -18.70149,-0.0494 -5.6854,0.83135 -1.9215,1.53378 8.36429,1.56092 10.2858,0.0272 14.9376,-0.65304 10.3372,-1.51156 z"
       id="path4249"
       inkscape:connector-curvature="0" />
  </g>
</svg>
